:SAMPLES-PER-SECOND 30
:FULLY-SPECIFIED
:DEGREES
520
root  70.0881 34.5642 -0.496818 163.247 71.5366 81.8673
RightUpLeg  -107.84 -22.1148 -8.93039
RightLeg  10.0857 -0.851761 0.632762
RightFoot  17.1974 -1.17694 5.11043
RightToes  3.49245e-010 0 -3.6325e-017
Spine  -96.4422 -14.6273 -13.685
Spine1  36.9897 -3.06331 4.64668
HEad  -3.88019 -25.2151 -14.345
LeftShoulder1  0.740123 1.41722 -29.3724
LeftArm  -6.54574 19.0399 -37.9297
LeftForeArm  34.8592 -3.59946 -6.8597
LeftHand  -0.529588 11.2767 -8.77451
RightShoulder  -0.720701 -5.48779 29.6584
RightArm  9.33377 1.00674 39.4543
RightForeArm  0.716846 10.6752 5.58574
RightHand  -0.31346 1.16676 -5.66737
LeftUpLeg  -80.804 -12.8914 -12.0984
LeftLeg  20.4703 4.50149 2.18315
LeftFoot  -14.5329 -0.0341912 -4.26726
LeftToes  -5.36635e-011 -6.70219e-011 5.24975e-011
521
root  69.1911 34.1281 -0.790148 167.261 68.7689 81.101
RightUpLeg  -112.765 -26.4099 -9.27388
RightLeg  8.95489 -3.16079 0.0221554
RightFoot  15.0202 -1.9507 8.78131
RightToes  3.49245e-010 0 -3.6325e-017
Spine  -103.048 -20.571 -16.2896
Spine1  40.5216 -5.45465 5.3651
HEad  -3.92967 -25.5306 -13.9474
LeftShoulder1  0.786442 1.2769 -29.2132
LeftArm  -6.62761 13.1074 -38.4408
LeftForeArm  32.2551 -4.94465 -7.13593
LeftHand  -0.322422 9.98862 -6.42509
RightShoulder  -0.77262 -5.62082 29.84
RightArm  8.42535 4.649 40.2955
RightForeArm  -1.57213 11.6853 5.3553
RightHand  -0.458796 3.52056 -6.22749
LeftUpLeg  -85.542 -16.5728 -13.713
LeftLeg  19.5682 3.81928 1.83621
LeftFoot  -14.3407 0.0233317 -2.35687
LeftToes  -5.36635e-011 -6.70219e-011 5.24975e-011
522
root  68.3077 33.8921 -1.05225 171.301 67.4312 81.9216
RightUpLeg  -115.259 -29.3754 -9.29829
RightLeg  6.89378 -7.92835 -0.685305
RightFoot  11.522 -2.3681 12.0714
RightToes  3.49245e-010 0 -3.6325e-017
Spine  -107.86 -24.636 -17.2921
Spine1  42.8877 -7.23844 5.45432
HEad  -3.67962 -25.7774 -14.5776
LeftShoulder1  0.797058 1.22774 -28.918
LeftArm  -6.80219 9.33585 -39.1407
LeftForeArm  28.7358 -9.66013 -6.66199
LeftHand  -0.157259 8.42259 -3.89294
RightShoulder  -0.679639 -5.38953 29.3481
RightArm  7.8614 7.82738 41.8928
RightForeArm  -1.06355 12.5185 5.12052
RightHand  -0.455112 3.40098 -6.24813
LeftUpLeg  -89.8192 -18.7292 -14.3401
LeftLeg  20.0715 2.42151 1.30411
LeftFoot  -13.4112 0.0502947 -1.71143
LeftToes  -5.36635e-011 -6.70219e-011 5.24975e-011
523
root  67.1873 34.303 -1.22659 170.565 69.8409 88.7778
RightUpLeg  -106.765 -27.2224 -9.77966
RightLeg  4.53844 -14.1389 -0.499347
RightFoot  7.612 -2.33992 14.261
RightToes  3.49245e-010 0 -3.6325e-017
Spine  -100.53 -19.3557 -15.4415
Spine1  40.0745 -4.24494 3.67801
HEad  -2.64391 -26.3604 -16.1689
LeftShoulder1  0.799658 1.17326 -28.1907
LeftArm  -2.92542 7.19867 -39.5676
LeftForeArm  21.0846 -16.7547 -5.31625
LeftHand  -0.0545529 7.23123 -1.06562
RightShoulder  -0.621946 -5.24194 29.0885
RightArm  9.64574 10.3996 43.2704
RightForeArm  -0.98013 13.1026 5.48853
RightHand  -0.481714 3.26947 -6.70955
LeftUpLeg  -86.5043 -15.8805 -13.8488
LeftLeg  23.175 2.21089 1.3758
LeftFoot  -13.006 0.0617946 -1.07231
LeftToes  -5.36635e-011 -6.70219e-011 5.24975e-011
524
root  66.3363 34.382 -1.33482 172.074 70.3151 89.3986
RightUpLeg  -108.672 -27.5143 -8.05366
RightLeg  7.20639 -20.4185 -0.310114
RightFoot  5.61978 -2.19592 14.8731
RightToes  3.49245e-010 0 -3.6325e-017
Spine  -102.889 -19.5854 -15.7385
Spine1  40.9858 -3.83046 3.44537
HEad  -1.36217 -26.9271 -17.3139
LeftShoulder1  0.766698 1.28105 -28.3711
LeftArm  -0.975167 4.57402 -39.1213
LeftForeArm  16.3667 -23.9916 -4.28093
LeftHand  -0.0372753 7.19942 0.0360263
RightShoulder  -0.422348 -4.70775 27.6544
RightArm  10.3258 10.9052 45.4625
RightForeArm  -0.427728 14.7144 5.2907
RightHand  -0.487305 2.53923 -7.33366
LeftUpLeg  -88.6788 -16.1611 -13.1256
LeftLeg  22.3999 2.60801 1.51178
LeftFoot  -11.2026 0.0680694 -0.513859
LeftToes  -5.36635e-011 -6.70219e-011 5.24975e-011
525
root  65.4735 34.7117 -1.35164 171.734 71.4105 90.5079
RightUpLeg  -110.441 -25.0617 -2.62271
RightLeg  12.934 -15.5837 -1.41941
RightFoot  4.6174 -1.66222 12.0548
RightToes  3.49245e-010 0 -3.6325e-017
Spine  -102.689 -18.6282 -15.872
Spine1  41.1409 -3.0012 3.25468
HEad  -0.0651093 -27.2071 -18.6698
LeftShoulder1  0.721952 1.3925 -28.081
LeftArm  -6.34762 3.61786 -39.2379
LeftForeArm  20.259 -31.5405 -5.74922
LeftHand  -0.0355154 6.48242 0.544848
RightShoulder  -0.0668447 -3.69433 25.4515
RightArm  10.8798 10.5135 48.4368
RightForeArm  0.704543 16.359 5.00402
RightHand  -0.548747 3.32529 -7.54217
LeftUpLeg  -88.2338 -15.3983 -12.1608
LeftLeg  20.4463 3.44893 1.76188
LeftFoot  -8.70489 0.0577137 -0.23518
LeftToes  -5.36635e-011 -6.70219e-011 5.24975e-011
526
root  64.6512 35.0373 -1.34427 171.544 72.6848 92.3594
RightUpLeg  -111.898 -21.4771 4.96653
RightLeg  19.5693 -6.2871 -2.6306
RightFoot  3.38297 -1.45427 11.4092
RightToes  3.49245e-010 0 -3.6325e-017
Spine  -101.543 -17.6049 -15.7424
Spine1  40.1563 -2.4446 3.63307
HEad  1.47257 -27.0966 -20.5922
LeftShoulder1  0.777 1.20779 -27.7098
LeftArm  -8.0041 3.04126 -39.4996
LeftForeArm  21.2476 -37.3258 -7.26393
LeftHand  -0.0383456 4.46164 2.41414
RightShoulder  -0.203413 -4.10976 25.9065
RightArm  15.5653 12.5435 48.7383
RightForeArm  -0.254118 17.2302 5.43016
RightHand  -0.567349 3.48684 -7.6389
LeftUpLeg  -87.258 -14.3381 -10.8204
LeftLeg  18.5512 4.48303 1.94394
LeftFoot  -6.38493 0.03461 0.0846434
LeftToes  -5.36635e-011 -6.70219e-011 5.24975e-011
